<svg xmlns="http://www.w3.org/2000/svg" width="24" height="24" viewBox="0 0 24 24" fill="none">
  <path fill-rule="evenodd" clip-rule="evenodd" d="M17.9998 20C17.9998 20.5523 17.5521 21 16.9998 21H6.99985C6.44756 21 5.99985 20.5523 5.99985 20V14H3.41406C3.14885 14 2.89449 13.8946 2.70696 13.7071C2.31643 13.3166 2.31643 12.6834 2.70696 12.2929L11.2927 3.70708C11.6833 3.31655 12.3164 3.31655 12.707 3.70708L21.2927 12.2929C21.4803 12.4804 21.5856 12.7348 21.5856 13C21.5856 13.5523 21.1379 14 20.5856 14H17.9998V20ZM11.9998 4.69703L3.89691 12.8H7.19985V19.8H10.9998V17H12.9998V19.8H16.7998V12.8H20.1028L11.9998 4.69703Z" fill="black" fill-opacity="0.9"></path>
</svg>
